<svg width="336" height="64" viewBox="0 0 336 64" fill="none" xmlns="http://www.w3.org/2000/svg">
<path d="M59.77 64H17.27C15.1948 64 13.258 63.6126 11.4595 62.8379C9.66097 62.0632 8.08382 61.0117 6.72803 59.6836C5.37223 58.3278 4.30697 56.7507 3.53223 54.9521C2.75749 53.126 2.37012 51.1891 2.37012 49.1416C2.37012 47.0664 2.75749 45.1296 3.53223 43.3311C4.30697 41.5326 5.37223 39.9554 6.72803 38.5996C8.08382 37.2438 9.66097 36.1785 11.4595 35.4038C13.258 34.6291 15.1948 34.2417 17.27 34.2417H46.9868V42.75H17.27C16.3846 42.75 15.5545 42.9299 14.7798 43.2896C14.005 43.6216 13.3271 44.0781 12.7461 44.6592C12.165 45.2402 11.7085 45.9181 11.3765 46.6929C11.0444 47.4676 10.8784 48.2839 10.8784 49.1416C10.8784 50.027 11.0444 50.8571 11.3765 51.6318C11.7085 52.3789 12.165 53.043 12.7461 53.624C13.3271 54.2051 14.005 54.6616 14.7798 54.9937C15.5545 55.3257 16.3846 55.4917 17.27 55.4917H51.2617V32.125C51.2617 31.2673 51.0819 30.451 50.7222 29.6763C50.3901 28.9015 49.9336 28.2236 49.3525 27.6426C48.7715 27.0615 48.0936 26.605 47.3188 26.2729C46.5441 25.9132 45.7279 25.7334 44.8701 25.7334H10.8784V17.2666H44.8701C46.9453 17.2666 48.8822 17.654 50.6807 18.4287C52.4792 19.2035 54.0563 20.2687 55.4121 21.6245C56.7679 22.9526 57.8332 24.516 58.6079 26.3145C59.3826 28.113 59.77 30.0498 59.77 32.125V64Z" fill="#EBEBEB"/>
<path d="M64.8486 64H56.3403V17.2666H101.165C104.374 17.2666 107.39 17.8892 110.212 19.1343C113.035 20.3517 115.483 22.0257 117.559 24.1562C119.661 26.2591 121.322 28.7355 122.539 31.5854C123.757 34.4077 124.365 37.4237 124.365 40.6333V64H115.857V40.6333C115.857 38.5858 115.47 36.6628 114.695 34.8643C113.92 33.0658 112.869 31.5024 111.541 30.1743C110.212 28.8185 108.649 27.7533 106.851 26.9785C105.08 26.1761 103.184 25.7611 101.165 25.7334H94.6069V64H86.0986V25.7334H64.8486V64Z" fill="#EBEBEB"/>
<path d="M124.823 64H116.315V17.2666H148.19C151.4 17.2666 154.416 17.8892 157.238 19.1343C160.06 20.3517 162.523 22.0257 164.625 24.1562C166.728 26.2591 168.389 28.7355 169.606 31.5854C170.823 34.4077 171.432 37.4237 171.432 40.6333V64H162.924V40.6333C162.924 38.5858 162.536 36.6628 161.762 34.8643C160.987 33.0658 159.936 31.5024 158.607 30.1743C157.279 28.8185 155.716 27.7533 153.917 26.9785C152.147 26.1761 150.237 25.7611 148.19 25.7334H124.823V64Z" fill="#EBEBEB"/>
<path d="M220.636 32.125C220.636 34.2002 220.248 36.137 219.474 37.9355C218.699 39.734 217.634 41.3112 216.278 42.667C214.95 43.9951 213.373 45.0465 211.546 45.8213C209.748 46.596 207.825 46.9834 205.777 46.9834H173.197C173.806 48.2285 174.566 49.3768 175.479 50.4282C176.393 51.4797 177.416 52.3789 178.551 53.126C179.685 53.873 180.917 54.4541 182.245 54.8691C183.6 55.2842 185.012 55.4917 186.478 55.4917H214.286V64H186.478C183.268 63.9723 180.252 63.3498 177.43 62.1323C174.608 60.8872 172.145 59.2132 170.042 57.1104C167.967 54.9798 166.321 52.5034 165.104 49.6812C163.886 46.8589 163.277 43.8429 163.277 40.6333C163.277 37.4237 163.886 34.4077 165.104 31.5854C166.321 28.7632 167.967 26.3006 170.042 24.1978C172.145 22.0672 174.608 20.3932 177.43 19.1758C180.252 17.9307 183.268 17.2943 186.478 17.2666H205.777C207.825 17.2666 209.748 17.654 211.546 18.4287C213.373 19.2035 214.95 20.2687 216.278 21.6245C217.634 22.9526 218.699 24.516 219.474 26.3145C220.248 28.113 220.636 30.0498 220.636 32.125ZM205.777 38.5166C206.635 38.5166 207.451 38.3506 208.226 38.0186C209.001 37.6865 209.679 37.23 210.26 36.6489C210.841 36.0679 211.297 35.39 211.629 34.6152C211.961 33.8405 212.127 33.0104 212.127 32.125C212.127 31.2673 211.961 30.451 211.629 29.6763C211.297 28.9015 210.841 28.2236 210.26 27.6426C209.679 27.0615 209.001 26.605 208.226 26.2729C207.451 25.9132 206.635 25.7334 205.777 25.7334H186.478C184.597 25.7334 182.826 26.0654 181.166 26.7295C179.533 27.3936 178.067 28.3066 176.766 29.4688C175.493 30.6032 174.428 31.959 173.57 33.5361C172.74 35.0856 172.201 36.7458 171.952 38.5166H205.777Z" fill="#EBEBEB"/>
<path d="M270.147 49.1416C270.147 51.1891 269.76 53.126 268.985 54.9521C268.211 56.7507 267.145 58.3278 265.79 59.6836C264.461 61.0117 262.884 62.0632 261.058 62.8379C259.26 63.6126 257.337 64 255.289 64H219.139V55.4917H255.289C256.147 55.4917 256.963 55.3257 257.738 54.9937C258.513 54.6616 259.19 54.2051 259.771 53.624C260.353 53.043 260.809 52.3789 261.141 51.6318C261.473 50.8571 261.639 50.027 261.639 49.1416C261.639 48.2839 261.473 47.4676 261.141 46.6929C260.809 45.9181 260.353 45.2402 259.771 44.6592C259.19 44.0781 258.513 43.6216 257.738 43.2896C256.963 42.9299 256.147 42.75 255.289 42.75H231.881C230.11 42.75 228.45 42.418 226.9 41.7539C225.351 41.0898 223.995 40.1906 222.833 39.0562C221.699 37.894 220.799 36.5382 220.135 34.9888C219.471 33.4393 219.139 31.7791 219.139 30.0083C219.139 28.2375 219.471 26.5773 220.135 25.0278C220.799 23.4784 221.699 22.1364 222.833 21.002C223.995 19.8398 225.351 18.9268 226.9 18.2627C228.45 17.5986 230.11 17.2666 231.881 17.2666H265.914V25.7334H231.881C230.691 25.7334 229.681 26.1484 228.851 26.9785C228.049 27.7809 227.647 28.7909 227.647 30.0083C227.647 31.1981 228.049 32.208 228.851 33.0381C229.681 33.8405 230.691 34.2417 231.881 34.2417H255.289C257.337 34.2417 259.26 34.6291 261.058 35.4038C262.884 36.1785 264.461 37.2438 265.79 38.5996C267.145 39.9554 268.211 41.5326 268.985 43.3311C269.76 45.1296 270.147 47.0664 270.147 49.1416Z" fill="#EBEBEB"/>
<path d="M278.85 6.6416C278.85 7.52702 278.684 8.3571 278.352 9.13184C278.02 9.87891 277.563 10.543 276.982 11.124C276.401 11.7051 275.723 12.1616 274.949 12.4937C274.174 12.8257 273.358 12.9917 272.5 12.9917C271.615 12.9917 270.785 12.8257 270.01 12.4937C269.235 12.1616 268.557 11.7051 267.976 11.124C267.395 10.543 266.938 9.87891 266.606 9.13184C266.274 8.3571 266.108 7.52702 266.108 6.6416C266.108 5.78385 266.274 4.96761 266.606 4.19287C266.938 3.41813 267.395 2.74023 267.976 2.15918C268.557 1.57812 269.235 1.12158 270.01 0.789551C270.785 0.42985 271.615 0.25 272.5 0.25C273.358 0.25 274.174 0.42985 274.949 0.789551C275.723 1.12158 276.401 1.57812 276.982 2.15918C277.563 2.74023 278.02 3.41813 278.352 4.19287C278.684 4.96761 278.85 5.78385 278.85 6.6416ZM276.733 64H268.225V17.2666H276.733V64Z" fill="#EBEBEB"/>
<path d="M276.23 64H318.73C320.805 64 322.742 63.6126 324.541 62.8379C326.339 62.0632 327.916 61.0117 329.272 59.6836C330.628 58.3278 331.693 56.7507 332.468 54.9521C333.243 53.126 333.63 51.1891 333.63 49.1416C333.63 47.0664 333.243 45.1296 332.468 43.3311C331.693 41.5326 330.628 39.9554 329.272 38.5996C327.916 37.2438 326.339 36.1785 324.541 35.4038C322.742 34.6291 320.805 34.2417 318.73 34.2417H289.013V42.75H318.73C319.615 42.75 320.445 42.9299 321.22 43.2896C321.995 43.6216 322.673 44.0781 323.254 44.6592C323.835 45.2402 324.292 45.9181 324.624 46.6929C324.956 47.4676 325.122 48.2839 325.122 49.1416C325.122 50.027 324.956 50.8571 324.624 51.6318C324.292 52.3789 323.835 53.043 323.254 53.624C322.673 54.2051 321.995 54.6616 321.22 54.9937C320.445 55.3257 319.615 55.4917 318.73 55.4917H284.738V32.125C284.738 31.2673 284.918 30.451 285.278 29.6763C285.61 28.9015 286.066 28.2236 286.647 27.6426C287.229 27.0615 287.906 26.605 288.681 26.2729C289.456 25.9132 290.272 25.7334 291.13 25.7334H325.122V17.2666H291.13C289.055 17.2666 287.118 17.654 285.319 18.4287C283.521 19.2035 281.944 20.2687 280.588 21.6245C279.232 22.9526 278.167 24.516 277.392 26.3145C276.617 28.113 276.23 30.0498 276.23 32.125V64Z" fill="#EBEBEB"/>
</svg>
